<?xml version="1.0" encoding="UTF-8" standalone="no"?>
<!DOCTYPE svg PUBLIC "-//W3C//DTD SVG 1.1//EN" "http://www.w3.org/Graphics/SVG/1.1/DTD/svg11.dtd">
<svg width="100%" height="100%" viewBox="0 0 1024 1024" version="1.1" xmlns="http://www.w3.org/2000/svg" xmlns:xlink="http://www.w3.org/1999/xlink" xml:space="preserve" xmlns:serif="http://www.serif.com/" style="fill-rule:evenodd;clip-rule:evenodd;stroke-linejoin:round;stroke-miterlimit:2;">
    <g id="Circle-Iconmark" serif:id="Circle Iconmark">
        <path d="M512,16C785.75,16 1008,238.25 1008,512C1008,785.75 785.75,1008 512,1008C238.25,1008 16,785.75 16,512C16,238.25 238.25,16 512,16ZM236.33,337.984L235.8,337.984C233.416,354.935 229.708,371.357 224.941,387.249C215.405,418.503 201.897,439.427 184.416,450.022C171.968,457.173 153.427,461.941 128.795,465.119L128,465.119L128,466.443C130.384,466.443 139.389,469.886 155.016,476.508C172.497,485.778 186.27,499.551 195.805,517.827C203.751,536.103 211.168,560.47 217.789,591.195C229.178,661.649 235.005,710.649 235.005,738.724C235.005,739.254 235.27,740.049 235.8,740.843L237.124,740.314C237.124,732.368 237.919,717.535 240.038,695.287C246.13,636.487 253.016,592.519 260.697,563.384C269.438,532.659 277.384,513.324 284.27,504.849C295.924,487.103 316.054,474.389 344.13,466.443L344.13,465.119C330.887,465.119 313.141,460.616 290.627,451.346C276.589,445.254 263.876,429.362 252.751,404.465C245.07,383.54 239.773,361.557 236.33,337.984ZM548.885,348.522C549.625,346.351 550.378,344.204 551.146,342.08C557.767,324.069 572.07,315.064 593.789,315.064L665.567,315.064L665.567,573.042C665.567,581.783 664.773,591.318 663.449,602.177C657.622,623.367 645.438,633.961 626.367,633.961L599.616,633.961C598.821,633.961 598.292,634.491 598.292,635.55L598.292,660.977C598.292,661.772 598.557,662.302 599.616,662.302L811.243,662.302C812.303,662.302 812.832,661.772 812.832,660.977L812.832,635.55C812.832,634.756 812.303,634.226 811.243,633.961L784.492,633.961C776.811,633.961 769.924,631.842 763.568,627.604C751.384,621.248 745.292,603.237 745.292,573.042L745.292,315.064L817.07,315.064C828.989,315.064 837.73,317.183 843.027,320.891C851.503,325.923 858.654,336.783 864.216,353.469C868.984,372.804 872.162,382.604 873.486,382.604L894.676,382.604L896,381.81C891.762,350.026 889.378,333.604 888.849,331.75C885.405,299.966 883.022,284.075 881.697,284.075L599.972,284.075C599.756,283.994 599.497,283.951 599.195,283.951L466.762,283.951C465.968,283.951 465.438,284.481 465.173,285.276L465.173,305.935C480.006,308.849 490.6,312.027 496.692,316C507.552,323.151 513.114,336.924 513.114,357.319C512.584,362.616 512.319,367.119 512.319,370.827L512.319,538.486C401.076,401.816 339.097,326.33 326.914,311.762C313.67,292.692 303.076,283.157 295.66,283.157L206.4,283.157C205.605,283.157 205.076,283.686 205.076,284.746L205.076,307.524C217.259,311.232 225.205,314.146 228.649,316C237.654,320.503 245.335,327.389 251.427,336.659L455.903,583.249C483.979,618.476 505.433,644.697 520.265,661.914L547.281,661.914C548.341,661.914 548.606,661.384 548.606,660.324L548.606,355.995C548.606,353.443 548.7,350.948 548.885,348.522Z" style="fill:white;"/>
    </g>
</svg>
