<?xml version="1.0" encoding="UTF-8" standalone="no"?>
<!DOCTYPE svg PUBLIC "-//W3C//DTD SVG 1.1//EN" "http://www.w3.org/Graphics/SVG/1.1/DTD/svg11.dtd">
<svg width="100%" height="100%" viewBox="0 0 1024 1024" version="1.1" xmlns="http://www.w3.org/2000/svg" xmlns:xlink="http://www.w3.org/1999/xlink" xml:space="preserve" xmlns:serif="http://www.serif.com/" style="fill-rule:evenodd;clip-rule:evenodd;stroke-linejoin:round;stroke-miterlimit:2;">
    <g transform="matrix(1.26131,0,0,1.26131,-133.789,-133.789)">
        <path d="M229.694,333.795L229.152,333.795C226.711,351.155 222.913,367.971 218.031,384.246C208.266,416.252 194.433,437.68 176.531,448.53C163.783,455.853 144.796,460.736 119.571,463.99L118.757,463.99L118.757,465.347C121.198,465.347 130.421,468.873 146.424,475.654C164.326,485.147 178.43,499.252 188.195,517.967C196.332,536.683 203.927,561.637 210.708,593.101C222.371,665.251 228.338,715.43 228.338,744.182C228.338,744.724 228.609,745.538 229.152,746.352L230.508,745.809C230.508,737.672 231.322,722.482 233.492,699.698C239.73,639.483 246.783,594.457 254.649,564.621C263.599,533.157 271.737,513.356 278.789,504.677C290.723,486.503 311.338,473.484 340.089,465.347L340.089,463.99C326.527,463.99 308.354,459.379 285.299,449.886C270.923,443.647 257.903,427.373 246.511,401.876C238.645,380.448 233.221,357.936 229.694,333.795ZM549.773,344.587C550.531,342.363 551.301,340.165 552.088,337.99C558.869,319.546 573.516,310.323 595.758,310.323L669.264,310.323L669.264,574.511C669.264,583.462 668.45,593.227 667.094,604.348C661.127,626.047 648.65,636.897 629.12,636.897L601.725,636.897C600.911,636.897 600.369,637.439 600.369,638.524L600.369,664.563C600.369,665.377 600.64,665.919 601.725,665.919L818.446,665.919C819.531,665.919 820.073,665.377 820.073,664.563L820.073,638.524C820.073,637.71 819.531,637.168 818.446,636.897L791.051,636.897C783.185,636.897 776.132,634.727 769.623,630.387C757.146,623.877 750.907,605.433 750.907,574.511L750.907,310.323L824.413,310.323C836.619,310.323 845.57,312.493 850.995,316.291C859.674,321.444 866.998,332.565 872.694,349.653C877.576,369.454 880.831,379.49 882.187,379.49L903.887,379.49L905.243,378.676C900.903,346.127 898.462,329.31 897.919,327.412C894.393,294.863 891.952,278.588 890.596,278.588L602.089,278.588C601.868,278.506 601.603,278.462 601.294,278.462L465.673,278.462C464.86,278.462 464.317,279.005 464.046,279.818L464.046,300.975C479.235,303.959 490.085,307.214 496.324,311.282C507.444,318.606 513.14,332.71 513.14,353.596C512.598,359.021 512.327,363.632 512.327,367.429L512.327,539.124C398.406,399.164 334.936,321.861 322.459,306.942C308.897,287.413 298.047,277.648 290.452,277.648L199.044,277.648C198.231,277.648 197.688,278.191 197.688,279.276L197.688,302.603C210.165,306.4 218.302,309.384 221.828,311.282C231.051,315.893 238.917,322.946 245.155,332.439L454.553,584.964C483.304,621.039 505.275,647.891 520.464,665.522L548.13,665.522C549.215,665.522 549.487,664.979 549.487,663.895L549.487,352.24C549.487,349.626 549.584,347.072 549.773,344.587Z" style="fill:white;fill-rule:nonzero;"/>
    </g>
</svg>
